<svg xmlns="http://www.w3.org/2000/svg" xmlns:xlink="http://www.w3.org/1999/xlink" xmlns:sketch="http://www.bohemiancoding.com/sketch/ns" viewBox="0 0 100 125" version="1.1" x="0px" y="0px"><title>Course</title><desc>Created with Sketch.</desc><g stroke="none" stroke-width="1" fill="none" fill-rule="evenodd" sketch:type="MSPage"><g sketch:type="MSArtboardGroup"><path d="M22.8752012,75.0740741 L22.8752012,75.0740741 C26.4564657,75.0740741 29.3604717,72.1671396 29.3604717,68.5802469 C29.3604717,64.9933542 26.4564657,62.0864198 22.8752012,62.0864198 C19.2939368,62.0864198 16.3899308,64.9933542 16.3899308,68.5802469 C16.3899308,72.1671396 19.2939368,75.0740741 22.8752012,75.0740741 L22.8752012,75.0740741 Z M22.8752012,77.0740741 L22.8752012,77.0740741 C18.1889158,77.0740741 14.3899308,73.2712581 14.3899308,68.5802469 C14.3899308,63.8892357 18.1889158,60.0864198 22.8752012,60.0864198 C27.5614867,60.0864198 31.3604717,63.8892357 31.3604717,68.5802469 C31.3604717,73.2712581 27.5614867,77.0740741 22.8752012,77.0740741 L22.8752012,77.0740741 Z" fill="hsl(313, 61%, 44%)" sketch:type="MSShapeGroup"/><path d="M22.8752012,70.8271605 L22.8752012,70.8271605 C24.113323,70.8271605 25.1178365,69.821634 25.1178365,68.5802469 C25.1178365,67.3388598 24.113323,66.3333333 22.8752012,66.3333333 C21.6370795,66.3333333 20.632566,67.3388598 20.632566,68.5802469 C20.632566,69.821634 21.6370795,70.8271605 22.8752012,70.8271605 L22.8752012,70.8271605 Z M22.8752012,72.8271605 L22.8752012,72.8271605 C20.5320585,72.8271605 18.632566,70.9257525 18.632566,68.5802469 C18.632566,66.2347413 20.5320585,64.3333333 22.8752012,64.3333333 C25.218344,64.3333333 27.1178365,66.2347413 27.1178365,68.5802469 C27.1178365,70.9257525 25.218344,72.8271605 22.8752012,72.8271605 L22.8752012,72.8271605 Z" fill="hsl(313, 61%, 44%)" sketch:type="MSShapeGroup"/><path d="M49.3916714,21.9876543 L49.3916714,21.9876543 C52.9729358,21.9876543 55.8769418,19.0807199 55.8769418,15.4938272 C55.8769418,11.9069344 52.9729358,9 49.3916714,9 C45.8104069,9 42.9064009,11.9069344 42.9064009,15.4938272 C42.9064009,19.0807199 45.8104069,21.9876543 49.3916714,21.9876543 L49.3916714,21.9876543 Z M49.3916714,23.9876543 L49.3916714,23.9876543 C44.7053859,23.9876543 40.9064009,20.1848384 40.9064009,15.4938272 C40.9064009,10.802816 44.7053859,7 49.3916714,7 C54.0779568,7 57.8769418,10.802816 57.8769418,15.4938272 C57.8769418,20.1848384 54.0779568,23.9876543 49.3916714,23.9876543 L49.3916714,23.9876543 Z" fill="hsl(313, 61%, 44%)" sketch:type="MSShapeGroup"/><path d="M86.5147296,43.2222222 L86.5147296,43.2222222 C90.095994,43.2222222 93,40.3152878 93,36.7283951 C93,33.1415023 90.095994,30.2345679 86.5147296,30.2345679 C82.9334651,30.2345679 80.0294591,33.1415023 80.0294591,36.7283951 C80.0294591,40.3152878 82.9334651,43.2222222 86.5147296,43.2222222 L86.5147296,43.2222222 Z M86.5147296,45.2222222 L86.5147296,45.2222222 C81.8284441,45.2222222 78.0294591,41.4194063 78.0294591,36.7283951 C78.0294591,32.0373839 81.8284441,28.2345679 86.5147296,28.2345679 C91.201015,28.2345679 95,32.0373839 95,36.7283951 C95,41.4194063 91.201015,45.2222222 86.5147296,45.2222222 L86.5147296,45.2222222 Z" fill="hsl(313, 61%, 44%)" sketch:type="MSShapeGroup"/><path d="M86.5147296,69.7654321 L86.5147296,69.7654321 C90.095994,69.7654321 93,66.8584977 93,63.2716049 C93,59.6847122 90.095994,56.7777778 86.5147296,56.7777778 C82.9334651,56.7777778 80.0294591,59.6847122 80.0294591,63.2716049 C80.0294591,66.8584977 82.9334651,69.7654321 86.5147296,69.7654321 L86.5147296,69.7654321 Z M86.5147296,71.7654321 L86.5147296,71.7654321 C81.8284441,71.7654321 78.0294591,67.9626161 78.0294591,63.2716049 C78.0294591,58.5805937 81.8284441,54.7777778 86.5147296,54.7777778 C91.201015,54.7777778 95,58.5805937 95,63.2716049 C95,67.9626161 91.201015,71.7654321 86.5147296,71.7654321 L86.5147296,71.7654321 Z" fill="hsl(313, 61%, 44%)" sketch:type="MSShapeGroup"/><path d="M54.6949654,91 L54.6949654,91 C58.2762299,91 61.1802358,88.0930656 61.1802358,84.5061728 C61.1802358,80.9192801 58.2762299,78.0123457 54.6949654,78.0123457 C51.1137009,78.0123457 48.209695,80.9192801 48.209695,84.5061728 C48.209695,88.0930656 51.1137009,91 54.6949654,91 L54.6949654,91 Z M54.6949654,93 L54.6949654,93 C50.0086799,93 46.209695,89.197184 46.209695,84.5061728 C46.209695,79.8151616 50.0086799,76.0123457 54.6949654,76.0123457 C59.3812509,76.0123457 63.1802358,79.8151616 63.1802358,84.5061728 C63.1802358,89.197184 59.3812509,93 54.6949654,93 L54.6949654,93 Z" fill="hsl(313, 61%, 44%)" sketch:type="MSShapeGroup"/><path d="M20.846874,21.3756406 L7.3427835,17.7404002 C6.58388451,17.536108 5.8967576,18.2468216 6.12653702,18.9983962 L10.4680297,33.198779 C10.6978092,33.9503537 11.6648892,34.1553254 12.1798062,33.5615886 L21.342404,22.9964462 C21.825971,22.4388582 21.5595684,21.5674947 20.846874,21.3756406 L20.846874,21.3756406 Z M20.3269905,23.3068892 L19.8314605,21.6860836 L10.6688628,32.2512261 L12.3806393,32.6140356 L8.03914654,18.4136528 L6.82290006,19.6716488 L20.3269905,23.3068892 L20.3269905,23.3068892 Z" fill="hsl(313, 61%, 44%)" sketch:type="MSShapeGroup"/><path d="M29.2097835,72.8147587 L47.5154701,82.2106403 L48.4051227,82.6672782 L49.3183986,80.8879729 L48.4287459,80.431335 L30.1230593,71.0354535 L29.2334067,70.5788155 L28.3201309,72.3581208 L29.2097835,72.8147587 L29.2097835,72.8147587 Z" fill="hsl(313, 61%, 44%)" sketch:type="MSShapeGroup"/><path d="M61.6140055,81.0910514 L80.705864,68.3503106 L81.5376561,67.7952234 L80.4274816,66.1316391 L79.5956895,66.6867264 L60.503831,79.4274671 L59.6720388,79.9825544 L60.7822134,81.6461386 L61.6140055,81.0910514 L61.6140055,81.0910514 Z" fill="hsl(313, 61%, 44%)" sketch:type="MSShapeGroup"/><path d="M87,55.6160663 L87,44.1604938 L87,43.1604938 L85,43.1604938 L85,44.1604938 L85,55.6160663 L85,56.6160663 L87,56.6160663 L87,55.6160663 L87,55.6160663 Z" fill="hsl(313, 61%, 44%)" sketch:type="MSShapeGroup"/><path d="M56.1481423,20.8081681 L78.1935834,33.337911 L79.0629735,33.8320374 L80.0512262,32.0932572 L79.1818362,31.5991309 L57.1363951,19.0693879 L56.267005,18.5752615 L55.2787522,20.3140417 L56.1481423,20.8081681 L56.1481423,20.8081681 Z" fill="hsl(313, 61%, 44%)" sketch:type="MSShapeGroup"/><path d="M22.0864525,23.025591 L41.8375327,18.2083484 L42.8090541,17.9713965 L42.3351505,16.0283537 L41.3636291,16.2653056 L21.6125489,21.0825482 L20.6410275,21.3195 L21.1149311,23.2625428 L22.0864525,23.025591 L22.0864525,23.025591 Z" fill="hsl(313, 61%, 44%)" sketch:type="MSShapeGroup"/></g></g></svg>